<svg id="Layer_1" data-name="Layer 1" xmlns="http://www.w3.org/2000/svg" viewBox="0 0 185.4 199.61"><defs><style>.cls-1{fill:#bfe538;}</style></defs><title>mouseevents</title><path class="cls-1" d="M180.36,122.23c-5.22-49.15-34.41-69.56-76.09-62V43.82h-13v36l.07,0c5.64-.2,11.26-.57,16.86-1.18-.55-1.9-1-3.66-1.31-5.18,31.68-6,51.53,7.15,58.62,39.31a65.81,65.81,0,0,1-16.86,1.31c-5.29-6.34-10.2-12.47-13.67-19.47-6.42-13-16.62-17.29-25.23-15.84a.73.73,0,0,1-.52,1.1c-6,.68-11.91,1.07-17.89,1.28a.65.65,0,0,1-.5-1.07C82.78,76,69,78.7,61.14,94.58,53.5,110,38.58,121.6,29.57,138.4c-10,18.61-11.82,43.06-4.89,65.39,8.08,26.12,29,43.65,54.46,52.92,0,0,0,0-4.3,6.24l11,7.58,5.42-8v9.32h13V262.5l6,8,11-7.58L117,256.71a113.75,113.75,0,0,0,12.32-5.32c51.67-26.18,58-86.7,30-124.23A77.85,77.85,0,0,0,180.36,122.23ZM98.06,248.15c-58.71-10.87-76.83-65.93-56.72-103.44,8.17-15.22,23.19-26.91,31.76-44.2,1.81-3.64,4.92-8.1,9.45-8.63,5.06-.51,8.32,6.22,18.28,4.57,6.82-1.11,7.56-4.57,12.73-4.57,6.67.79,9,8.64,13.2,15.29,8.61,13.65,21,24.48,28,37.54C174.86,182.14,156.85,237.24,98.06,248.15Z"/></svg>