<svg id="Layer_1" data-name="Layer 1" xmlns="http://www.w3.org/2000/svg" viewBox="0 0 185.4 199.61"><defs><style>.cls-1{fill:none;stroke:#ff0;stroke-miterlimit:10;stroke-width:12.29px;}.cls-2{fill:#ff0;}</style></defs><title>mouseevents</title><path class="cls-1" d="M160.59,203.46c.32-2.37-.13-11.89-.13-11.89s-9-53.12-45.21-69.2l-4.92-5.69c-19.86-40-32.19,3.41-32.19,3.41l-5,4.26C52.4,127.64,34,165,34,165l-2.62,8.13"/><path class="cls-2" d="M113.57,174.17c10.75,0,10.76-16.7,0-16.7s-10.77,16.7,0,16.7Z"/><path class="cls-2" d="M75.66,164.12c10.75,0,10.77-16.71,0-16.71s-10.77,16.71,0,16.71Z"/><path class="cls-1" d="M32.05,170.23a95.76,95.76,0,0,0-2.64,33.37,102.16,102.16,0,0,0,4.23,22.25c1.87,6,3.83,12.06,8.48,19.07,3.13,4.71,6.72,10.12,13.24,14.3,10.66,6.84,20.23,4.71,22.25,10.6.91,2.64-1,3.25-.53,7.94s3.06,11.27,8.48,13.78c2.73,1.26,5.7.84,11.65,0,8.55-1.21,12.83-1.82,14.31-4.77,2.41-4.82-4.81-11.31-2.12-14.84,1.2-1.57,3.46-1.36,5.82-1.58,6.08-.59,10.06-3.93,18-10.6a80.77,80.77,0,0,0,19.6-24.9,82.7,82.7,0,0,0,8.48-36"/><ellipse class="cls-2" cx="64.9" cy="189.12" rx="7.87" ry="7.12" transform="translate(-114.72 101.28) rotate(-45)"/></svg>