<svg id="Layer_1" data-name="Layer 1" xmlns="http://www.w3.org/2000/svg" viewBox="0 0 185.06 111.02"><defs><style>.cls-1{fill:#bfe538;}</style></defs><title>mouseevents</title><path class="cls-1" d="M179.7-76.94c-5.21-49.15-34.41-69.56-76.09-62v-16.42h-13v36h.07c5.64-.2,11.26-.57,16.86-1.18-.55-1.91-1-3.67-1.31-5.18,31.68-6,51.53,7.15,58.62,39.31A65.81,65.81,0,0,1,148-85.12c-5.29-6.34-10.2-12.48-13.67-19.47-6.42-13-16.62-17.29-25.23-15.84a.72.72,0,0,1-.52,1.09c-5.95.69-11.91,1.08-17.89,1.29a.65.65,0,0,1-.5-1.07c-8.06-4-21.84-1.35-29.7,14.53-7.64,15.38-22.56,27-31.57,43.82C18.92-42.17,17.09-17.72,24,4.62,32.1,30.73,53,48.27,78.48,57.54c0,0,0,0-4.3,6.24l11,7.57,5.42-8v9.32h13V63.33l6,8,11-7.57-4.29-6.24a113.75,113.75,0,0,0,12.32-5.32c51.67-26.19,58-86.7,30-124.23A77.85,77.85,0,0,0,179.7-76.94ZM97.4,49C38.69,38.11,20.57-17,40.68-54.46c8.17-15.23,23.19-26.91,31.76-44.2,1.81-3.64,4.92-8.1,9.45-8.64,5.06-.5,8.32,6.23,18.28,4.58,6.82-1.11,7.56-4.58,12.73-4.58,6.67.8,9,8.64,13.2,15.3,8.61,13.65,21,24.47,28,37.54C174.2-17,156.19,38.06,97.4,49Z"/></svg>