<svg id="Layer_1" data-name="Layer 1" xmlns="http://www.w3.org/2000/svg" viewBox="0 0 185.06 111.02"><defs><style>.cls-1{fill:none;stroke:#ff0;stroke-miterlimit:10;stroke-width:12.29px;}.cls-2{fill:#ff0;}</style></defs><title>mouseevents</title><path class="cls-1" d="M160.93,4.28c.31-2.37-.14-11.89-.14-11.89s-9-53.12-45.21-69.2l-4.91-5.69c-19.87-40-32.2,3.41-32.2,3.41l-5,4.26c-20.71,3.29-39.1,40.62-39.1,40.62l-2.63,8.13"/><path class="cls-1" d="M32.39-29A95.63,95.63,0,0,0,29.74,4.42,102,102,0,0,0,34,26.67c1.86,6,3.82,12.06,8.47,19.07C45.59,50.45,49.18,55.85,55.7,60,66.36,66.88,75.93,64.75,78,70.63c.9,2.65-1,3.26-.53,8s3.06,11.27,8.47,13.77c2.73,1.27,5.71.85,11.66,0,8.55-1.21,12.82-1.81,14.3-4.76,2.41-4.82-4.8-11.31-2.12-14.84,1.2-1.58,3.47-1.36,5.83-1.59,6.07-.58,10-3.92,18-10.59a81.18,81.18,0,0,0,19.6-24.9,82.65,82.65,0,0,0,8.47-36"/><ellipse class="cls-2" cx="125.09" cy="17.66" rx="7.87" ry="7.12" transform="translate(24.15 93.63) rotate(-45)"/><ellipse class="cls-2" cx="78.48" cy="30.37" rx="7.87" ry="7.12" transform="translate(1.51 64.39) rotate(-45)"/><ellipse class="cls-2" cx="106.02" cy="43.55" rx="7.87" ry="7.12" transform="translate(0.25 87.72) rotate(-45)"/></svg>