<svg id="Layer_1" data-name="Layer 1" xmlns="http://www.w3.org/2000/svg" viewBox="0 0 185.4 199.61"><defs><style>.cls-1,.cls-2,.cls-3,.cls-4{fill:none;stroke-miterlimit:10;}.cls-1,.cls-2,.cls-4{stroke:#bfe538;}.cls-1{stroke-width:16.01px;}.cls-2,.cls-3{stroke-width:4.03px;}.cls-3{stroke:#56310b;}.cls-4{stroke-width:16.04px;}</style></defs><title>mouseevents</title><path class="cls-1" d="M157.34,175.89C154.52,174,132,121.44,132,121.44c-.94-1.88-15-44.13-15-44.13-24.41-24.41-39.43-.94-39.43-.94s-16,43.19-18.78,55.4-23.47,46.94-23.47,46.94"/><path class="cls-2" d="M87.87,80.13s7.51,8.45,18.77,0"/><path class="cls-3" d="M98.19,77.31s-9.38-28.16-15-29.1"/><path class="cls-4" d="M150.86,164.42l11.89,19s43,94.56-64.23,106.37c0,0-106.35-.93-67.57-103.57,0,0,7-11.71,7.2-13.78"/><path class="cls-4" d="M63.13,177.67s-1.82,13.06-1.21,14.93"/></svg>