<svg id="Layer_1" data-name="Layer 1" xmlns="http://www.w3.org/2000/svg" viewBox="0 0 185.4 199.61"><defs><style>.cls-1,.cls-2,.cls-3,.cls-4{fill:none;stroke-miterlimit:10;}.cls-1,.cls-3,.cls-4{stroke:#ebfc4c;}.cls-1,.cls-2{stroke-width:18.29px;}.cls-2{stroke:#425e10;}.cls-3{stroke-width:9.14px;}.cls-4{stroke-width:18.4px;}</style></defs><title>mouseevents</title><path class="cls-1" d="M165.72,199.7c5.19-107.5-72.07-89.34-72.07-89.34S-2.24,90.17,12.9,194.9"/><path class="cls-2" d="M108.44,80.84S92.86,10.28,33.29,46.93c0,0,40.32,12.83,44,34.83"/><path class="cls-2" d="M114.85,74.43S135,39.6,164.34,36.85c0,0-32.08-35.73-70.56,6.42"/><polyline class="cls-3" points="75.91 157.36 88.73 142.7 101.56 156.44"/><polyline class="cls-3" points="107.98 174.77 120.81 160.11 133.64 173.85"/><polyline class="cls-3" points="42.92 177.52 55.74 162.86 68.58 176.6"/><polyline class="cls-3" points="42 139.95 54.83 125.28 67.66 139.03"/><polyline class="cls-3" points="108.89 138.11 121.72 123.45 134.55 137.2"/><polyline class="cls-3" points="75.91 193.1 88.73 178.44 101.56 192.18"/><path class="cls-4" d="M22.28,198.82l-8.53.05S22,299.13,89.17,288.09c0,0,69.9,4.6,76.34-90.14"/><path class="cls-2" d="M120.35,111.08c0-9.16,43.07-29.32,43.07-29.32-43.07-40.32-69.64,28.4-69.64,28.4S65.37,57.93,37.88,94.59c0,0,25.65,3.66,27.49,18.32"/></svg>