<svg id="Layer_1" data-name="Layer 1" xmlns="http://www.w3.org/2000/svg" viewBox="0 0 185.4 199.61"><defs><style>.cls-1,.cls-2{fill:none;stroke-miterlimit:10;}.cls-1{stroke:#fc6f06;stroke-width:18px;}.cls-2{stroke:#683a14;stroke-width:4.54px;}</style></defs><title>mouseevents</title><path class="cls-1" d="M167.22,195c4-14,2-29-2.93-42-6-14-24-26-39.31-17.56"/><path class="cls-1" d="M64.72,134.31c-9.39-5.55-20.4-1.57-28.41,3.42-1,2-3,3-5,5-12,15-10,34-10.08,52"/><path class="cls-1" d="M137.2,204.89l0-9.22.12-30.06s2.48-26.33-20.92-33.68S78.38,148,82.72,174.3"/><path class="cls-1" d="M91.54,136.47c-16.07-15-35.61,8.55-35.61,8.55s-12.68,31.72-10.7,41.72"/><path class="cls-2" d="M90.09,130.45s0-16.1-1.92-17.56,18,.52,18,.52S97.9,128,99.36,129"/><path class="cls-1" d="M67.82,256.59c-27.19,2.64-44.5-38-45-42.66,0,0-1.2-20.76-1.58-22.1"/><path class="cls-1" d="M84.72,238.34c9.56,9.49,22.56,23.49,36.56,16.49,13-12,14-31,15.05-47.93l1.95-10.07"/><line class="cls-1" x1="166.28" y1="210.83" x2="168.41" y2="188.82"/></svg>