<svg id="Layer_1" data-name="Layer 1" xmlns="http://www.w3.org/2000/svg" viewBox="0 0 185.4 199.61"><defs><style>.cls-1,.cls-3{fill:none;stroke-miterlimit:10;}.cls-1{stroke:red;stroke-width:16.29px;}.cls-2{fill:red;}.cls-3{stroke:#425e10;stroke-width:15.62px;}</style></defs><title>mouseevents</title><path class="cls-1" d="M66.42,138.4c-4.7,2.08-9.67,3.48-14.42,5.42-17.33,7.06-29,26.43-31.75,44.42,0,0,.76,18.62,1.3,20.13"/><path class="cls-1" d="M112.56,140.21c10,2.71,19.91,1.81,29.86,3.62,12.67,10.85,24.43,23.52,27.51,40.87,0,0,1.44,7.08,1.44,8.89s.91,6.33.91,7.24l-.46,4.88"/><path class="cls-2" d="M46.74,194.73H47A3.09,3.09,0,0,0,50,191.86a37.23,37.23,0,0,1,2.15-10.18,3.1,3.1,0,1,0-5.82-2.13,43.83,43.83,0,0,0-2.52,11.88A3.11,3.11,0,0,0,46.74,194.73Z"/><path class="cls-3" d="M85.76,136a4.65,4.65,0,0,0,4-1,4.83,4.83,0,0,0,1.76-3.75v-13c0-1.28.75-2.27,1.38-2.27h6.35c.63,0,1.37,1,1.37,2.27v12.25a4.8,4.8,0,0,0,2.19,4.05,4.69,4.69,0,0,0,4.57.32c10.43-4.82,21.47-.71,28.53,3.25a64.89,64.89,0,0,0-16.23,1.48,4.74,4.74,0,0,0-3.55,3.94,4.88,4.88,0,0,0,2.34,4.92,26.12,26.12,0,0,1,8.67,8,19.76,19.76,0,0,1,2.63,5.66,36.45,36.45,0,0,0-18.08-7.75,38.57,38.57,0,0,0-4-.36,4.74,4.74,0,0,0-3.5,1.38,4.94,4.94,0,0,0-1.44,3.55c.23,14.82-4.84,24.75-7.78,29.25-2.81-6-3.68-19-3.53-29.63a4.83,4.83,0,0,0-4.22-4.86,16.34,16.34,0,0,0-2.22-.15c-.14,0-.29,0-.43,0-.39,0-.78.05-1.17.08-.59.05-1.17.11-1.76.21-.39.06-.77.15-1.15.23-.61.13-1.22.28-1.82.46-.37.1-.73.22-1.1.34-.63.21-1.24.44-1.86.69-.35.14-.7.28-1,.44-.64.28-1.26.57-1.89.89l-1,.49c-.64.34-1.27.7-1.9,1.07-.29.17-.59.33-.88.51-.68.42-1.34.85-2,1.29l-.65.42c-.86.59-1.7,1.2-2.52,1.81a42.52,42.52,0,0,1,3.22-5c.06-.08.12-.18.18-.25a41.81,41.81,0,0,1,3.5-4.1h0A36.43,36.43,0,0,1,75,149.35c.18-.14.37-.3.55-.42l.28-.2c.35-.25.7-.5,1-.7A4.85,4.85,0,0,0,76,139.5c-.14-.06-.32-.09-.48-.14a17.45,17.45,0,0,0-2-.6c-.44-.11-.88-.22-1.34-.3l-.19-.05h-.13a41.31,41.31,0,0,0-11.57-.18A44.29,44.29,0,0,1,85.76,136Z"/></svg>