<svg id="Layer_1" data-name="Layer 1" xmlns="http://www.w3.org/2000/svg" viewBox="0 0 185.4 199.61"><defs><style>.cls-1,.cls-2,.cls-3,.cls-4{fill:none;stroke-miterlimit:10;}.cls-1,.cls-4{stroke:#f71e1e;}.cls-1{stroke-width:18px;}.cls-2{stroke:#683a14;stroke-width:4.54px;}.cls-3{stroke:#425e10;stroke-width:2.23px;}.cls-4{stroke-width:17.28px;}</style></defs><title>mouseevents</title><path class="cls-1" d="M165.51,200.77c1.77,0,5.77,0,5.77,0,3-22,3-46-12-64-17-22-46-13-67.26-.76"/><path class="cls-1" d="M101.17,140.1c-12.89-7.28-27.89-13.28-42.89-12.28-12,2-24,8-30,19-1,2-2,5-3,7-6,15-5,31-5,46"/><path class="cls-2" d="M51.07,92.49s43.81,3.81,46.66,36.19"/><path class="cls-3" d="M92,108.68s32.38,3.81,29.52-37.14"/><path class="cls-3" d="M92.28,108.26s-9.94-31.88,29.29-36.54"/><path class="cls-4" d="M171.53,198.82c0,5.5-.92,15.59-.92,15.59s-23.85,77-75.21,51.36c0,0-33.93,29.35-71.54-41.27,0,0-4.58-11-4.58-20.18l1.33-6.5"/></svg>