<svg id="Layer_1" data-name="Layer 1" xmlns="http://www.w3.org/2000/svg" viewBox="0 0 185.06 111.02"><defs><style>.cls-1{fill:#d80027;}.cls-2,.cls-3{fill:none;stroke:#d80027;stroke-miterlimit:10;}.cls-2{stroke-width:9px;}.cls-3{stroke-width:4.54px;}</style></defs><title>mouseevents</title><path class="cls-1" d="M42.34-21.3a3.29,3.29,0,0,0-4.42,1.38C31.49-7.66,29.77,6,33.07,18.49a3.27,3.27,0,0,0,3.16,2.44,3.38,3.38,0,0,0,.83-.11,3.27,3.27,0,0,0,2.33-4C36.51,5.89,38-6.08,43.71-16.88A3.27,3.27,0,0,0,42.34-21.3Z"/><path class="cls-2" d="M108.41-69.34C113-72.55,119.23-73,119.3-73a3.26,3.26,0,0,0,3-3,3.27,3.27,0,0,0-2.49-3.46c-7.33-1.76-13.65-1.93-18.85-.5-1.75-8.39-4-11.71-4.33-12.11a3.4,3.4,0,0,0-5.27,0c-.29.4-2.58,3.72-4.33,12.11-5.21-1.43-11.52-1.26-18.85.5A3.27,3.27,0,0,0,65.73-76a3.25,3.25,0,0,0,3,3c.09,0,6.61.55,11.2,3.93C42.41-62.71,14.8-32.77,14.8,2.65c0,37.48,30.77,68.7,71.82,72.64l13.32.24c42-2.41,75-34.43,75-72.88C174.9-33.45,146.73-63.45,108.41-69.34Z"/><path class="cls-3" d="M99.81,69,87,68.77c-37.43-3.59-65.66-32-65.66-66.12,0-33.91,28.06-62.32,65.26-66.08a3.27,3.27,0,0,0,2.53-1.68,3.28,3.28,0,0,0,.07-3,17.24,17.24,0,0,0-4.74-5.77,15.88,15.88,0,0,1,3.67,1.27,3.28,3.28,0,0,0,3,0,3.29,3.29,0,0,0,1.73-2.4c.37-2.38.79-4.39,1.22-6.07.43,1.68.85,3.69,1.23,6.07A3.26,3.26,0,0,0,97-72.66a3.23,3.23,0,0,0,3,0,16.54,16.54,0,0,1,3.69-1.28A17.22,17.22,0,0,0,99-68.32a3.26,3.26,0,0,0,0,3.08,3.28,3.28,0,0,0,2.59,1.67c38,3.14,66.75,31.61,66.75,66.22C168.37,37.65,138.15,66.79,99.81,69Z"/></svg>