<svg id="Layer_1" data-name="Layer 1" xmlns="http://www.w3.org/2000/svg" viewBox="0 0 185.06 111.02"><defs><style>.cls-1,.cls-3{fill:none;stroke-miterlimit:10;}.cls-1{stroke:red;stroke-width:16.29px;}.cls-2{fill:red;}.cls-3{stroke:#425e10;stroke-width:15.62px;}</style></defs><title>mouseevents</title><path class="cls-1" d="M67.75-60.78c-4.7,2.08-9.66,3.48-14.42,5.42C36-48.3,24.36-28.93,21.59-10.94c0,0,.76,18.62,1.29,20.13"/><path class="cls-1" d="M173.44,1.66c-1.52,25.75-20.28,47.62-43.21,57.88C103,71.72,67.72,66.66,45.14,47.17A68.33,68.33,0,0,1,22.45,5.65"/><path class="cls-1" d="M113.89-59c10,2.71,19.91,1.81,29.86,3.61,12.67,10.86,24.43,23.53,27.51,40.88,0,0,1.45,7.08,1.45,8.89s.9,6.33.9,7.24l-.45,4.88"/><path class="cls-2" d="M51,7.15a3.06,3.06,0,0,0-3.51-2.61,3.1,3.1,0,0,0-2.62,3.52A35,35,0,0,0,49.35,20.9a3.1,3.1,0,1,0,5.33-3.16A29.16,29.16,0,0,1,51,7.15Z"/><path class="cls-3" d="M87.1-63.21a4.67,4.67,0,0,0,4-1,4.83,4.83,0,0,0,1.76-3.75v-13c0-1.27.74-2.26,1.37-2.26h6.35c.64,0,1.37,1,1.37,2.26v12.26a4.82,4.82,0,0,0,2.19,4,4.71,4.71,0,0,0,4.57.32c10.44-4.82,21.47-.72,28.53,3.24A65.81,65.81,0,0,0,121-59.58a4.75,4.75,0,0,0-3.56,3.94,4.89,4.89,0,0,0,2.34,4.93,26.16,26.16,0,0,1,8.68,8,19.72,19.72,0,0,1,2.62,5.66A36.42,36.42,0,0,0,113-44.85c-1.6-.22-3-.31-4-.35a4.72,4.72,0,0,0-3.5,1.38,4.9,4.9,0,0,0-1.44,3.55c.22,14.81-4.84,24.75-7.79,29.25-2.81-6-3.68-19-3.52-29.63a4.84,4.84,0,0,0-4.22-4.87,18.38,18.38,0,0,0-2.22-.14c-.15,0-.29,0-.43,0-.39,0-.78,0-1.17.08-.59,0-1.18.11-1.77.21-.38.06-.77.14-1.15.23-.61.13-1.21.28-1.82.46-.36.1-.73.22-1.1.34Q78-44,77-43.61l-1,.43c-.63.28-1.26.58-1.88.9l-1,.49c-.64.34-1.27.7-1.89,1.07-.3.17-.59.33-.88.51-.69.42-1.35.85-2,1.29l-.64.42c-.87.59-1.71,1.2-2.52,1.8a43.2,43.2,0,0,1,3.22-5l.17-.25a41.84,41.84,0,0,1,3.51-4.1h0a37.26,37.26,0,0,1,4.23-3.74l.55-.42c.1-.08.19-.13.29-.2l1-.7a4.83,4.83,0,0,0,2.14-4.53,4.79,4.79,0,0,0-3-4c-.15-.06-.33-.09-.48-.14a18.25,18.25,0,0,0-2-.6c-.43-.11-.87-.22-1.33-.3l-.2-.05s-.08,0-.12,0a41.4,41.4,0,0,0-11.58-.18A44.32,44.32,0,0,1,87.1-63.21Z"/></svg>