<svg id="Layer_1" data-name="Layer 1" xmlns="http://www.w3.org/2000/svg" viewBox="0 0 185.06 111.02"><defs><style>.cls-1{fill:#30420e;}.cls-2{fill:#630;}</style></defs><title>mouseevents</title><path class="cls-1" d="M159.41-42.77c-8.68-16.31-18.21-25.94-21.79-42.34-4.27-19.6-14.87-37.7-34-42.88,1.79-6.51,5.83-15.77,14.66-19l-5.15-14c-16.78,6.18-22.69,23.16-24.71,32.44-20.35,4.1-31.85,22.91-36.33,43.43C49.72-74.18,44.75-66.35,39-57.29-8.08,16.8,21.81,92.65,94.87,92.74,168.65,92.64,191.6,17.72,159.41-42.77ZM94.07,77.84C29.2,76.48,18.59,11,43.47-35.77,51.74-51.32,62.41-62.5,66.65-81.93c9.63-44.11,47.22-42.18,56.42,0,3,13.51,9.12,23.23,15.09,32.62C178.49,14.18,156,78.94,94.07,77.84Z"/><path class="cls-2" d="M94.86-48.75c-26.65,0-44.79,30.85-44.79,57.92,0,27.87,18.76,53,44.79,53s44.79-25.34,44.79-53C139.65-18.08,121.38-48.75,94.86-48.75Zm0,96.07C78.38,47.32,65,30.21,65,9.17c0-22.11,14.53-43,29.9-43s29.9,20.92,29.9,43C124.76,30.21,111.35,47.32,94.86,47.32Z"/></svg>