<svg id="Layer_1" data-name="Layer 1" xmlns="http://www.w3.org/2000/svg" viewBox="0 0 185.4 199.61"><defs><style>.cls-1,.cls-3{fill:none;stroke-miterlimit:10;}.cls-1{stroke:#ff7900;stroke-width:15.12px;}.cls-2{fill:#ff7900;}.cls-3{stroke:#425e10;stroke-width:1.88px;}</style></defs><title>mouseevents</title><path class="cls-1" d="M22.31,189.07c-.6-41.07,32.52-73.66,74-72.78s75.5,34.87,76.1,75.94"/><path class="cls-1" d="M172.4,190.17c-.59,41.07-34.66,75.07-76.1,75.94S21.76,234.4,22.35,193.33l0-5.59-.15-1.58"/><path class="cls-2" d="M45,166c9.2,0,9.21-14.29,0-14.29S35.77,166,45,166Z"/><path class="cls-2" d="M58.44,156.92c9.2,0,9.21-14.29,0-14.29s-9.2,14.29,0,14.29Z"/><path class="cls-2" d="M120.77,151.82c9.19,0,9.2-14.29,0-14.29s-9.21,14.29,0,14.29Z"/><path class="cls-2" d="M144.24,147.94c9.19,0,9.2-14.29,0-14.29s-9.21,14.29,0,14.29Z"/><path class="cls-2" d="M147.62,168.71c9.19,0,9.21-14.29,0-14.29s-9.21,14.29,0,14.29Z"/><path class="cls-2" d="M124.81,169.58c9.19,0,9.2-14.29,0-14.29s-9.21,14.29,0,14.29Z"/><path class="cls-3" d="M126.85,74.82c12.18,65.1-35.41,59.69-35.41,59.69S72.74,91,126.85,74.82"/><path class="cls-3" d="M115.26,96.28c-4.64,1.83-23.82,38.23-23.82,38.23l-1.21,4.18-3.36,11.62"/><polyline class="cls-3" points="102.72 144.46 89.92 138.58 79.79 142"/><path class="cls-2" d="M21.08,168.1a1.26,1.26,0,0,0,0-2.52,1.26,1.26,0,0,0,0,2.52Z"/></svg>