<svg id="Layer_1" data-name="Layer 1" xmlns="http://www.w3.org/2000/svg" viewBox="0 0 185.4 199.61"><defs><style>.cls-1{fill:#d80027;}.cls-2,.cls-3{fill:none;stroke:#d80027;stroke-miterlimit:10;}.cls-2{stroke-width:9px;}.cls-3{stroke-width:4.54px;}</style></defs><title>mouseevents</title><path class="cls-1" d="M42,177.89a3.27,3.27,0,0,0-4.41,1.37c-6.43,12.26-8.15,25.9-4.85,38.41a3.26,3.26,0,0,0,3.15,2.44,3,3,0,0,0,.84-.11,3.27,3.27,0,0,0,2.33-4c-2.89-10.93-1.35-22.91,4.32-33.71A3.26,3.26,0,0,0,42,177.89Z"/><path class="cls-1" d="M58.41,156.41a62.79,62.79,0,0,0-9.28,7.44,3.27,3.27,0,0,0,2.28,5.61,3.22,3.22,0,0,0,2.27-.92A56.83,56.83,0,0,1,62,161.87a3.27,3.27,0,1,0-3.59-5.46Z"/><path class="cls-2" d="M108.08,129.84c4.56-3.21,10.81-3.7,10.89-3.71a3.26,3.26,0,0,0,.55-6.43c-7.33-1.77-13.65-1.94-18.85-.51-1.76-8.39-4-11.71-4.33-12.11a3.41,3.41,0,0,0-5.28,0c-.28.4-2.57,3.72-4.33,12.11-5.2-1.43-11.52-1.26-18.85.51a3.26,3.26,0,0,0,.55,6.43c.09,0,6.61.55,11.19,3.93-37.54,6.41-65.16,36.35-65.16,71.77,0,37.48,30.77,68.71,71.82,72.64l13.32.24c42-2.41,75-34.42,75-72.88C174.57,165.73,146.4,135.73,108.08,129.84Z"/><path class="cls-3" d="M99.48,268.18,86.66,268C49.23,264.36,21,235.93,21,201.83c0-33.91,28.05-62.31,65.26-66.08A3.26,3.26,0,0,0,88.85,131a17,17,0,0,0-4.74-5.77,16,16,0,0,1,3.68,1.27,3.27,3.27,0,0,0,4.68-2.41c.38-2.39.8-4.4,1.23-6.07.43,1.67.85,3.68,1.22,6.07a3.29,3.29,0,0,0,1.73,2.39,3.22,3.22,0,0,0,3,0,16.54,16.54,0,0,1,3.69-1.28,17.25,17.25,0,0,0-4.66,5.6,3.32,3.32,0,0,0,0,3.08,3.25,3.25,0,0,0,2.59,1.67c38.06,3.14,66.75,31.61,66.75,66.22C168,236.83,137.81,266,99.48,268.18Z"/></svg>