<svg id="Layer_1" data-name="Layer 1" xmlns="http://www.w3.org/2000/svg" viewBox="0 0 185.06 111.02"><defs><style>.cls-1{fill:none;stroke:#fc6f06;stroke-miterlimit:10;stroke-width:18px;}</style></defs><title>mouseevents</title><path class="cls-1" d="M137.53,5.71l0-9.22.12-30.06s2.48-26.33-20.91-33.68-38.07,16-33.72,42.37"/><path class="cls-1" d="M166.9,6.08a70,70,0,0,1-8.56,31.36c-4.42,8.32-10.23,16.73-19.27,20.4a26.87,26.87,0,0,1-17.71,1"/><path class="cls-1" d="M68.15,57.4C41,60.05,23.65,19.43,23.2,14.75c0,0-1.2-20.76-1.59-22.11"/><path class="cls-1" d="M98.39,55l-4.79.48c-40.75,16.78-36.91-47-36.91-47"/><path class="cls-1" d="M85.05,39.16c9.56,9.49,22.56,23.49,36.56,16.49,13-12,14-31,15.06-47.93l1.94-10.07"/><line class="cls-1" x1="166.61" y1="11.65" x2="168.74" y2="-10.36"/></svg>