<svg id="Layer_1" data-name="Layer 1" xmlns="http://www.w3.org/2000/svg" viewBox="0 0 185.06 111.02"><defs><style>.cls-1,.cls-2{fill:none;stroke:#f71e1e;stroke-miterlimit:10;}.cls-1{stroke-width:18px;}.cls-2{stroke-width:17.28px;}</style></defs><title>mouseevents</title><path class="cls-1" d="M165.85,1.59c1.76,0,5.76,0,5.76,0,3-22,3-46-12-64-17-22-46-13-67.26-.76"/><path class="cls-1" d="M101.51-59.08c-12.9-7.28-27.9-13.28-42.9-12.28-12,2-24,8-30,19-1,2-2,5-3,7-6,15-5,31-5,46"/><path class="cls-2" d="M171.86-.36c0,5.5-.92,15.59-.92,15.59s-23.84,77-75.2,51.36c0,0-33.94,29.35-71.54-41.27,0,0-4.59-11-4.59-20.18L21-1.36"/></svg>