<svg id="Layer_1" data-name="Layer 1" xmlns="http://www.w3.org/2000/svg" viewBox="0 0 185.4 199.61"><defs><style>.cls-1{fill:#30420e;}.cls-2{fill:#630;}</style></defs><title>mouseevents</title><path class="cls-1" d="M159.07,156.41c-8.68-16.31-18.2-25.94-21.78-42.33-4.28-19.61-14.87-37.71-34-42.88,1.79-6.52,5.83-15.78,14.65-19l-5.14-14C96,44.38,90.11,61.36,88.1,70.64c-20.35,4.1-31.85,22.91-36.33,43.44-2.39,10.93-7.36,18.75-13.11,27.81C-8.42,216,21.48,291.83,94.54,291.92,168.31,291.82,191.26,216.91,159.07,156.41ZM93.73,277c-64.87-1.35-75.47-66.86-50.6-113.61,8.28-15.55,18.95-26.73,23.19-46.16,9.62-44.11,47.22-42.18,56.42,0,2.94,13.51,9.12,23.23,15.09,32.63C178.16,213.36,155.63,278.12,93.73,277Z"/><path class="cls-2" d="M94.53,150.43c-26.66,0-44.79,30.85-44.79,57.93,0,27.86,18.75,53,44.79,53s44.79-25.34,44.79-53C139.32,181.1,121.05,150.43,94.53,150.43Zm0,96.07c-16.49,0-29.9-17.11-29.9-38.14,0-22.12,14.53-43,29.9-43s29.9,20.91,29.9,43C124.43,229.39,111,246.5,94.53,246.5Z"/></svg>