<svg id="Layer_1" data-name="Layer 1" xmlns="http://www.w3.org/2000/svg" viewBox="0 0 185.4 199.61"><defs><style>.cls-1,.cls-2,.cls-3{fill:none;stroke:#916312;stroke-miterlimit:10;}.cls-1{stroke-width:4.29px;}.cls-2{stroke-width:4.54px;}.cls-3{stroke-width:9px;}.cls-4{fill:#916312;}.cls-5{fill:#56310b;}</style></defs><title>mouseevents</title><path class="cls-1" d="M109.62,131.21H100.7a8.92,8.92,0,1,1-17.84,0H73.94a17.84,17.84,0,1,0,35.68,0Z"/><rect class="cls-1" x="38.27" y="145.43" width="8.92" height="12.61" transform="translate(-94.8 74.69) rotate(-45.01)"/><rect class="cls-1" x="29.08" y="189.66" width="18.39" height="8.91" transform="translate(-45.98 15.1) rotate(-14.05)"/><rect class="cls-1" x="38.27" y="163.28" width="8.92" height="12.61" transform="translate(-107.42 79.92) rotate(-45.01)"/><path class="cls-2" d="M91.63,267.81A75.8,75.8,0,0,1,28.3,233.62l3.34-2.22L26.69,224l-2.83,1.89a75.38,75.38,0,0,1-4.23-10.15l6.16-1.54-2.17-8.65-6.33,1.58A75.85,75.85,0,0,1,16,196.48h8.69v-9H16a74.46,74.46,0,0,1,1.6-11.93l5.09,2.55,4-8-6.54-3.27a74.26,74.26,0,0,1,4-9.3L26,159.38l6.3-6.3-3.54-3.55A76.33,76.33,0,0,1,48.9,129.3l7.72,11.57L64,135.93l-7.47-11.2a75.13,75.13,0,0,1,30.49-8.39V125h9v-8.77a75.25,75.25,0,0,1,35.81,11.33l-3.14,3.15,6.3,6.3,4.21-4.21A75.52,75.52,0,0,1,161.81,163l-5.1,2.55,4,8,4.05-2,2.76,11.43-8.45.77.8,8.82,8.47-.78a73,73,0,0,1-.31,10.48l-6.3-1-1.34,8.62,6.13.95a73.6,73.6,0,0,1-3.22,10.26l-2.92-1.59-4.16,7.67,3.46,1.87A74.16,74.16,0,0,1,101,268Z"/><path class="cls-3" d="M176.37,181.91l-3.51-14.45,5.68-2.84-4-8L169.81,159a83.41,83.41,0,0,0-5.55-11l6.51-6.51-6.31-6.31-5.33,5.33a84.93,84.93,0,0,0-13.46-14.06l2.8-2.8-6.31-6.3-3.78,3.78A83.45,83.45,0,0,0,120.13,112l2.65-7.94-8.46-2.82-2.76,8.26a86.79,86.79,0,0,0-15-2.19V76h-9V107.4a85.17,85.17,0,0,0-20.44,3.52L60,100.26l-7.43,4.94,5.94,8.89a84.93,84.93,0,0,0-15.76,9L37,117.41l-6.32,6.3,5,5a85.93,85.93,0,0,0-13,14.5l-3.48-3.46L12.84,146l4.9,4.87a84,84,0,0,0-5.4,11.9l-3.28-1.63-4,8,4.61,2.3a84.24,84.24,0,0,0-2.37,16H7.07v9H7.3a84.32,84.32,0,0,0,1.56,12.8L6,210l2.16,8.65,3-.75a84.06,84.06,0,0,0,5.44,13l-3.07,2.05,4.95,7.42,2.62-1.75a86.24,86.24,0,0,0,6.4,8.44l-6.28,9.42,7.42,4.94,5.18-7.77a85.18,85.18,0,0,0,15.68,11.69l-6,9,7.42,4.94,6.54-9.82a83.57,83.57,0,0,0,19.7,6l-3,8.87,8.46,2.82,3.53-10.61c1.89.13,3.74.29,5.64.29a88.64,88.64,0,0,0,14.49-1.19l.76.35,4.39,10,8-3.5L115.8,274a82.56,82.56,0,0,0,18.64-7.58l7.25,9,6.79-5.47-6.62-8.2A84,84,0,0,0,156.08,249l5.74,7.11,6.79-5.48-7-8.61a82.09,82.09,0,0,0,5.47-8.79l2.71,1.47L174,227l-3.17-1.72A82.24,82.24,0,0,0,175,212.17l3,.46,1.34-8.61-2.85-.44a82.38,82.38,0,0,0,.37-12.6l.22,0-.8-8.81-.23,0"/><rect class="cls-1" x="132.14" y="146.21" width="12.34" height="8.72" transform="translate(-65.9 160.53) rotate(-50.22)"/><rect class="cls-1" x="142.07" y="182.45" width="8.72" height="17.98" transform="translate(-65.18 306.81) rotate(-81.19)"/><rect class="cls-1" x="133.73" y="163.59" width="12.34" height="8.72" transform="translate(-78.68 168.01) rotate(-50.22)"/><line class="cls-1" x1="87.28" y1="106.82" x2="96.28" y2="105.82"/><path class="cls-4" d="M86.61,91.44v4.73a9.91,9.91,0,0,0,.17,3.48c.7,1.81,4,3,5.71,3.4,2.3.51,3.26-2.08,3.68-3.93a4.81,4.81,0,0,0-2-5.27c-1.59-1.09-3.09,1.51-1.51,2.59,1.24.85.42,3.23-.37,4.15l1.06-.44a9.76,9.76,0,0,1-3.18-1.34c-.9-.44-.59-.39-.58-1.46V91.44a1.5,1.5,0,0,0-3,0Z"/><path class="cls-5" d="M92.93,95c-.47-2.83-.49-5.83-1.12-8.6-1.89,3.81-.75,10.28-.92,14.58a10.31,10.31,0,0,0,.29,3.68l.1-1.14a1,1,0,0,1,1.4.74"/><path class="cls-5" d="M98.23,103.65V77.29c0-3.86-6-3.87-6,0v26.36c0,3.86,6,3.87,6,0Z"/><path class="cls-5" d="M87.44,77.73V103c0,3.86,6,3.87,6,0V77.73c0-3.86-6-3.87-6,0Z"/><path class="cls-5" d="M91.92,103V77.07c0-3.86-6-3.86-6,0V103c0,3.86,6,3.87,6,0Z"/><path class="cls-5" d="M91.53,80.29h4.14a3,3,0,0,0,0-6H91.53a3,3,0,0,0,0,6Z"/><path class="cls-5" d="M95.23,101.52H88.54v6H95c3.86,0,3.86-6,0-6H88.54c-3.86,0-3.87,6,0,6h6.69c3.86,0,3.87-6,0-6Z"/></svg>