<svg id="Layer_1" data-name="Layer 1" xmlns="http://www.w3.org/2000/svg" viewBox="0 0 185.06 111.02"><defs><style>.cls-1,.cls-2,.cls-3{fill:none;stroke:#916312;stroke-miterlimit:10;}.cls-1{stroke-width:4.29px;}.cls-2{stroke-width:4.54px;}.cls-3{stroke-width:9px;}</style></defs><title>mouseevents</title><rect class="cls-1" x="28.42" y="-9.52" width="18.39" height="8.91" transform="translate(2.35 8.98) rotate(-14.05)"/><rect class="cls-1" x="49.18" y="46.22" width="12.61" height="8.92" transform="translate(-19.59 54.1) rotate(-45.01)"/><rect class="cls-1" x="36.27" y="28.4" width="16.08" height="8.92" transform="matrix(0.83, -0.55, 0.55, 0.83, -10.79, 30.11)"/><rect class="cls-1" x="41.56" y="8.32" width="9.97" height="8.92" transform="translate(-0.8 22.17) rotate(-26.58)"/><rect class="cls-1" x="69.73" y="52.91" width="16.08" height="8.92" transform="translate(-13.09 90.28) rotate(-56.33)"/><rect class="cls-1" x="102.3" y="32.31" width="8.92" height="9.97" transform="translate(-5.41 51.71) rotate(-26.58)"/><rect class="cls-1" x="62.54" y="28.38" width="12.61" height="8.92" transform="translate(-3.05 58.32) rotate(-45.01)"/><path class="cls-2" d="M91,68.63A75.79,75.79,0,0,1,27.64,34.45L31,32.23,26,24.81,23.2,26.69A75.25,75.25,0,0,1,19,16.55L25.13,15,23,6.35,16.63,7.94A75.81,75.81,0,0,1,15.34-2.7H24v-9H15.35A74.3,74.3,0,0,1,17-23.67L22-21.13l4-8-6.54-3.27a74.26,74.26,0,0,1,4-9.3l1.88,1.88,6.3-6.3-3.54-3.55A76.18,76.18,0,0,1,48.24-69.87L56-58.3l7.42-4.94-7.47-11.2A75.13,75.13,0,0,1,86.4-82.83v8.68h9v-8.78A75.47,75.47,0,0,1,131.26-71.6l-3.14,3.15,6.3,6.31,4.21-4.21a75.52,75.52,0,0,1,22.52,30.19l-5.1,2.55,4,8,4.05-2,2.76,11.43-8.45.77.8,8.81,8.47-.77a72.79,72.79,0,0,1-.31,10.47l-6.3-1-1.34,8.62,6.13,1a73.18,73.18,0,0,1-3.22,10.26l-2.92-1.58L155.55,28,159,29.85A74.15,74.15,0,0,1,100.38,68.8Z"/><path class="cls-3" d="M175.71-17.26,172.2-31.71l5.68-2.85-4-8-4.73,2.37a84.15,84.15,0,0,0-5.55-11l6.51-6.5L163.8-64l-5.33,5.33A84.93,84.93,0,0,0,145-72.73l2.8-2.8-6.31-6.3-3.78,3.77a83.87,83.87,0,0,0-18.25-9.1l2.65-7.94-8.46-2.83-2.76,8.27a85.83,85.83,0,0,0-15-2.19V-123.2h-9v31.43a85.16,85.16,0,0,0-20.44,3.51L59.29-98.92l-7.43,5,5.94,8.89a84.89,84.89,0,0,0-15.76,9l-5.66-5.63-6.32,6.3,5,4.94A85.62,85.62,0,0,0,22-56L18.5-59.47l-6.32,6.3,4.9,4.88a84,84,0,0,0-5.4,11.9L8.4-38l-4,8L9-27.75a84.46,84.46,0,0,0-2.37,16H6.41v9.05h.23A84,84,0,0,0,8.2,10.1l-2.86.72L7.5,19.46l3-.75a83.76,83.76,0,0,0,5.44,13l-3.07,2,4.95,7.42,2.62-1.75a85.06,85.06,0,0,0,6.4,8.44l-6.28,9.42,7.42,5,5.18-7.77A85.18,85.18,0,0,0,48.83,66.12l-6,9,7.42,5,6.54-9.82a84,84,0,0,0,19.7,6l-3,8.87L82,87.88l3.53-10.62c1.89.13,3.74.29,5.64.29a88.64,88.64,0,0,0,14.49-1.18l.76.35,4.39,10,8-3.5-3.67-8.37a82.13,82.13,0,0,0,18.64-7.59l7.25,9,6.79-5.48-6.62-8.2A83.49,83.49,0,0,0,155.42,49.8l5.74,7.1L168,51.43l-7-8.62A81,81,0,0,0,166.46,34l2.71,1.46,4.16-7.66-3.17-1.72A82.57,82.57,0,0,0,174.3,13l3,.46,1.34-8.61-2.85-.44a82.42,82.42,0,0,0,.37-12.6l.22,0-.8-8.82-.23,0"/><rect class="cls-1" x="141.41" y="-16.72" width="8.72" height="17.98" transform="translate(131.08 137.5) rotate(-81.19)"/><rect class="cls-1" x="128.97" y="41.98" width="8.72" height="12.34" transform="translate(11.02 119.81) rotate(-50.22)"/><rect class="cls-2" x="138.26" y="21.93" width="8.72" height="15.73" transform="translate(48.45 140.97) rotate(-61.53)"/><rect class="cls-1" x="134.3" y="5.56" width="8.72" height="9.75" transform="translate(78.47 135.79) rotate(-68.66)"/><rect class="cls-1" x="107.86" y="48.78" width="8.72" height="15.73" transform="translate(-10.68 83.06) rotate(-38.91)"/><rect class="cls-1" x="77.33" y="35.33" width="9.75" height="8.72" transform="translate(15.32 101.81) rotate(-68.66)"/><rect class="cls-1" x="114.37" y="25.8" width="8.72" height="12.34" transform="matrix(0.64, -0.77, 0.77, 0.64, 18.2, 102.76)"/></svg>